<svg version="1.1" xmlns="http://www.w3.org/2000/svg" x="0px" y="0px" width="18px" height="23px" viewBox="0 0 18 23" style="enable-background:new 0 0 18 23" xml:space="preserve"><style>.magazineCardIcon{fill:#565656}</style><defs></defs><path d="M16.9,6.8c0-0.3-0.2-0.5-0.5-0.5H13V4.1C13,1.8,11.1,0,8.8,0S4.7,1.8,4.7,4.1v2.3H1.6c-0.3,0-0.5,0.2-0.5,0.5  L0,22.5c0,0.1,0,0.3,0.1,0.4C0.2,22.9,0.4,23,0.5,23h17c0.1,0,0.3-0.1,0.4-0.2c0.1-0.1,0.1-0.2,0.1-0.4L16.9,6.8z M5.7,4.1  C5.7,2.4,7.1,1,8.8,1S12,2.4,12,4.1v2.3H5.7V4.1z M1,22L2.1,7.4h2.7v2.5c0,0.3,0.2,0.5,0.5,0.5s0.5-0.2,0.5-0.5V7.4H12v2.5  c0,0.3,0.2,0.5,0.5,0.5S13,10.1,13,9.8V7.4h3L17,22H1z" class="magazineCardIcon"></path></svg>