<svg xmlns="http://www.w3.org/2000/svg" version="1.1" x="0px" y="0px" width="11.5px" height="8.5px" viewBox="0 0 11.5 8.5" style="enable-background:new 0 0 11.5 8.5" xml:space="preserve"><style>.magazineNewsletterIcon{fill:#565656}</style><defs></defs><path d="M11.5,1.2c0-0.7-0.6-1.2-1.2-1.2h-9C0.6,0,0,0.6,0,1.2v6c0,0.3,0.1,0.5,0.2,0.7l0,0l0.2,0.2c0,0,0,0,0,0  l0.2,0.1l0,0C0.8,8.4,1,8.5,1.2,8.5h9c0.3,0,0.5-0.1,0.7-0.2l0,0l0.2-0.1c0,0,0,0,0,0L11.3,8l0,0c0.1-0.2,0.2-0.4,0.2-0.7V1.2z   M10.2,0.5c0.1,0,0.2,0,0.3,0.1L5.8,5.3L0.9,0.6c0.1,0,0.2-0.1,0.3-0.1H10.2z M0.5,7.2v-6c0-0.1,0-0.2,0.1-0.3l3.3,3.3L0.6,7.6  C0.5,7.5,0.5,7.4,0.5,7.2z M10.2,8h-9C1.1,8,1,8,0.9,7.9l3.3-3.4l1.3,1.3c0,0,0.1,0.1,0.2,0.1s0.1,0,0.2-0.1l1.3-1.3l3.3,3.4  C10.5,8,10.4,8,10.2,8z M7.6,4.2l3.3-3.3C11,1,11,1.1,11,1.2v6c0,0.1,0,0.2-0.1,0.3L7.6,4.2z" class="magazineNewsletterIcon"></path></svg>