<svg xmlns="http://www.w3.org/2000/svg" version="1.1" x="0px" y="0px" width="27px" height="27px" viewBox="0 0 27 27" style="enable-background:new 0 0 27 27" xml:space="preserve"><style>.searchIcon{fill:#373737}</style><defs></defs><path d="M26.8,25.6l-9-8.9c1.5-1.7,2.4-4,2.4-6.6C20.3,4.6,15.7,0,10.1,0S0,4.7,0,10.2s4.6,10.1,10.2,10.1  c2.5,0,4.8-0.9,6.6-2.4l9,8.9c0.1,0.1,0.3,0.2,0.5,0.2s0.4-0.1,0.5-0.2C27.1,26.4,27.1,25.9,26.8,25.6z M1.5,10.2  c0-4.8,3.9-8.6,8.7-8.6s8.7,3.8,8.7,8.6s-3.9,8.6-8.7,8.6S1.5,14.9,1.5,10.2z" class="searchIcon"></path></svg>