<svg xmlns="http://www.w3.org/2000/svg" version="1.1" x="0px" y="0px" width="9.8px" height="12.8px" viewBox="0 0 9.8 12.8" style="enable-background:new 0 0 9.8 12.8" xml:space="preserve"><style>.magazineStoresIcon0{fill:#565656}</style><defs></defs><g><path d="M8.3,1.4C7.4,0.5,6.2,0,4.9,0C3.6,0,2.4,0.5,1.5,1.4c-1.8,1.8-2,4.8-0.4,6.8l3.6,4.4c0.1,0.1,0.2,0.1,0.3,0.1   c0.1,0,0.2-0.1,0.3-0.1c0,0,2.8-3.4,3.6-4.4C10.3,6.2,10.1,3.2,8.3,1.4z M8.1,7.8c-0.6,0.8-2.5,3.1-3.3,4l-3.3-4   C0.3,6.1,0.5,3.4,2,1.9c0.8-0.8,1.8-1.2,2.9-1.2C6,0.8,7,1.2,7.8,1.9C9.2,3.4,9.4,6.1,8.1,7.8z" class="magazineStoresIcon0"></path><path d="M4.9,2.9c-1,0-1.8,0.8-1.8,1.8S4,6.5,4.9,6.5s1.8-0.8,1.8-1.8S5.9,2.9,4.9,2.9z M4.9,5.7c-0.6,0-1-0.5-1-1.1   s0.5-1.1,1-1.1s1,0.5,1,1.1S5.5,5.7,4.9,5.7z" class="magazineStoresIcon0"></path></g></svg>