<svg version="1.1" xmlns="http://www.w3.org/2000/svg" x="0px" y="0px" width="21px" height="18px" viewBox="0 0 21 18" style="enable-background:new 0 0 21 18" xml:space="preserve"><style>.magazineHeartIconeartIcon{fill:#565656}</style><defs></defs><g><path d="M10.4,18c-0.1,0-0.2,0-0.3-0.1l-7-5.9c-1.5-1.2-2.5-2.8-2.9-4.5C-0.1,6.3,0,5.6,0,5.4C0.3,2.3,2.7,0,5.6,0    C8,0,9.7,1.9,10.4,2.9c0.8-1,2.6-2.9,5-2.9c2.9,0,5.2,2.3,5.5,5.4c0,0.2,0.1,0.9-0.2,2l0,0c-0.4,1.7-1.4,3.3-2.9,4.5l-7.1,5.9    C10.7,18,10.6,18,10.4,18z M5.6,1C3.2,1,1.3,2.9,1,5.5c0,0.1-0.1,0.7,0.2,1.7c0.4,1.5,1.3,2.9,2.6,4l6.7,5.7l6.8-5.7    c1.3-1.1,2.2-2.5,2.6-4v0c0.2-1,0.2-1.6,0.2-1.6C19.7,2.9,17.8,1,15.4,1c-2.6,0-4.6,3-4.6,3.1c-0.1,0.1-0.3,0.2-0.4,0.2    c-0.2,0-0.3-0.1-0.4-0.2C10,4,8.2,1,5.6,1z" class="magazineHeartIconeartIcon"></path></g></svg>